<svg width="26" height="26" viewBox="0 0 26 26" fill="none" xmlns="http://www.w3.org/2000/svg">
<g clip-path="url(#clip0_1_154)">
<path d="M17.875 9.34916C17.4308 9.34916 17.0625 8.98083 17.0625 8.53666V7.04166C17.0625 5.90416 16.575 4.79916 15.73 4.03C14.8742 3.25 13.7692 2.8925 12.5992 3.00083C10.6492 3.185 8.9375 5.17833 8.9375 7.25833V8.30916C8.9375 8.75333 8.56917 9.12166 8.125 9.12166C7.68083 9.12166 7.3125 8.75333 7.3125 8.30916V7.2475C7.3125 4.33333 9.66333 1.64666 12.4475 1.37583C14.0725 1.22417 15.6325 1.73333 16.8242 2.8275C18.005 3.9 18.6875 5.43833 18.6875 7.04166V8.53666C18.6875 8.98083 18.3192 9.34916 17.875 9.34916Z" fill="#292D32"/>
<path d="M16.25 24.6458H9.75005C4.74505 24.6458 3.81338 22.3166 3.57505 20.0525L2.76255 13.5633C2.64338 12.3933 2.60005 10.7141 3.73755 9.45746C4.71255 8.37413 6.32671 7.85413 8.66671 7.85413H17.3334C19.6842 7.85413 21.2984 8.38496 22.2625 9.45746C23.3892 10.7141 23.3567 12.3933 23.2375 13.5416L22.425 20.0525C22.1867 22.3166 21.255 24.6458 16.25 24.6458ZM8.66671 9.47913C6.83588 9.47913 5.57921 9.83663 4.94005 10.5516C4.40921 11.1366 4.23588 12.0358 4.37671 13.3791L5.18921 19.8683C5.37338 21.6016 5.85005 23.0316 9.75005 23.0316H16.25C20.15 23.0316 20.6267 21.6125 20.8109 19.89L21.6234 13.3791C21.7642 12.0575 21.5909 11.1583 21.06 10.5625C20.4209 9.83663 19.1642 9.47913 17.3334 9.47913H8.66671Z" fill="#292D32"/>
<path d="M16.705 14.2459C16.0983 14.2459 15.6108 13.7584 15.6108 13.1626C15.6108 12.5667 16.0983 12.0792 16.6942 12.0792C17.29 12.0792 17.7775 12.5667 17.7775 13.1626C17.7775 13.7584 17.3008 14.2459 16.705 14.2459Z" fill="#292D32"/>
<path d="M9.12163 14.2459C8.51497 14.2459 8.02747 13.7584 8.02747 13.1626C8.02747 12.5667 8.51497 12.0792 9.1108 12.0792C9.70663 12.0792 10.1941 12.5667 10.1941 13.1626C10.1941 13.7584 9.71747 14.2459 9.12163 14.2459Z" fill="#292D32"/>
</g>
<defs>
<clipPath id="clip0_1_154">
<rect width="26" height="26" fill="white"/>
</clipPath>
</defs>
</svg>
