<svg width="26" height="26" viewBox="0 0 26 26" fill="none" xmlns="http://www.w3.org/2000/svg">
<g clip-path="url(#clip0_1_155)">
<path d="M12.4583 23.5625C6.3375 23.5625 1.35416 18.5791 1.35416 12.4583C1.35416 6.33746 6.3375 1.35413 12.4583 1.35413C18.5792 1.35413 23.5625 6.33746 23.5625 12.4583C23.5625 18.5791 18.5792 23.5625 12.4583 23.5625ZM12.4583 2.97913C7.22583 2.97913 2.97916 7.23663 2.97916 12.4583C2.97916 17.68 7.22583 21.9375 12.4583 21.9375C17.6908 21.9375 21.9375 17.68 21.9375 12.4583C21.9375 7.23663 17.6908 2.97913 12.4583 2.97913Z" fill="#292D32"/>
<path d="M23.8333 24.6459C23.6275 24.6459 23.4217 24.5701 23.2592 24.4076L21.0925 22.2409C20.7783 21.9267 20.7783 21.4067 21.0925 21.0926C21.4067 20.7784 21.9267 20.7784 22.2408 21.0926L24.4075 23.2592C24.7217 23.5734 24.7217 24.0934 24.4075 24.4076C24.245 24.5701 24.0392 24.6459 23.8333 24.6459Z" fill="#292D32"/>
</g>
<defs>
<clipPath id="clip0_1_155">
<rect width="26" height="26" fill="white"/>
</clipPath>
</defs>
</svg>
